<svg width="100" height="100" viewBox="0 0 100 100" fill="none" xmlns="http://www.w3.org/2000/svg">
<g clip-path="url(#clip0_1_2)">
<circle cx="50" cy="50" r="50" fill="#0F0D0A"/>
<mask id="mask0_1_2" style="mask-type:alpha" maskUnits="userSpaceOnUse" x="0" y="0" width="100" height="100">
<circle cx="50" cy="50" r="50" fill="#0F0D0A"/>
</mask>
<g mask="url(#mask0_1_2)">
<path d="M141 -18H0V112H141V-18Z" fill="url(#paint0_radial_1_2)"/>
</g>
<path d="M37.625 50C37.625 43.1649 47.2899 37.625 54.125 37.625V33.5C49.7489 33.5 45.5521 35.2384 42.4577 38.3327C39.3634 41.4271 37.625 45.6239 37.625 50Z" fill="#C8935A"/>
<path d="M67.8117 29.375H76.1236C79.9186 29.375 83 32.4523 83 36.2514V63.7486C83 67.5436 79.9228 70.625 76.1236 70.625H67.8117C63.7577 73.323 58.9948 74.7585 54.125 74.75C49.2552 74.7585 44.4923 73.323 40.4383 70.625H23.8764C20.0814 70.625 17 67.5478 17 63.7486V36.2514C17 32.4564 20.0773 29.375 23.8764 29.375H25.25C25.25 28.281 25.6846 27.2318 26.4582 26.4582C27.2318 25.6846 28.281 25.25 29.375 25.25H33.5C34.594 25.25 35.6432 25.6846 36.4168 26.4582C37.1904 27.2318 37.625 28.281 37.625 29.375H40.4383C44.4923 26.677 49.2552 25.2415 54.125 25.25C59.1864 25.25 63.8889 26.768 67.8117 29.375ZM25.25 35.5625C25.25 35.0155 25.0327 34.4909 24.6459 34.1041C24.2591 33.7173 23.7345 33.5 23.1875 33.5C22.6405 33.5 22.1159 33.7173 21.7291 34.1041C21.3423 34.4909 21.125 35.0155 21.125 35.5625C21.125 36.1095 21.3423 36.6341 21.7291 37.0209C22.1159 37.4077 22.6405 37.625 23.1875 37.625C23.7345 37.625 24.2591 37.4077 24.6459 37.0209C25.0327 36.6341 25.25 36.1095 25.25 35.5625ZM74.75 50C74.75 44.5299 72.577 39.2839 68.7091 35.4159C64.8411 31.548 59.5951 29.375 54.125 29.375C48.6549 29.375 43.4089 31.548 39.5409 35.4159C35.673 39.2839 33.5 44.5299 33.5 50C33.5 55.4701 35.673 60.7161 39.5409 64.5841C43.4089 68.452 48.6549 70.625 54.125 70.625C59.5951 70.625 64.8411 68.452 68.7091 64.5841C72.577 60.7161 74.75 55.4701 74.75 50Z" fill="#C8935A"/>
</g>
<defs>
<radialGradient id="paint0_radial_1_2" cx="0" cy="0" r="1" gradientUnits="userSpaceOnUse" gradientTransform="translate(35.25 40.0937) scale(112.8 84.5)">
<stop stop-color="#C8935A" stop-opacity="0.4"/>
<stop offset="0.68" stop-color="#C8935A" stop-opacity="0"/>
<stop offset="1" stop-color="#C8935A" stop-opacity="0"/>
</radialGradient>
<clipPath id="clip0_1_2">
<rect width="100" height="100" fill="white"/>
</clipPath>
</defs>
</svg>
